<svg version="1.2" baseProfile="tiny-ps" xmlns="http://www.w3.org/2000/svg" viewBox="0 0 400 52" width="400" height="52">
	<title>unknown</title>
	<style>
		tspan { white-space:pre }
		.shp0 { fill: #f9a13f } 
		.shp1 { fill: #3b3b3b } 
		.shp2 { fill: #dba2fe } 
		.shp3 { opacity: 0.996;fill: #f14e38 } 
		.shp4 { opacity: 0.992;fill: #f46a3a } 
		.shp5 { fill: #b88a41 } 
		.shp6 { fill: #f7853c } 
		.shp7 { fill: #cbbf78 } 
	</style>
	<g id="Layer 1">
		<path id="Path 0" class="shp0" d="M285.63 5.25C284.28 7.04 282.41 11.2 281.46 14.5C280.25 18.74 279.88 22.7 280.21 28C280.49 32.47 281.54 37.52 282.81 40.5C283.99 43.25 285.87 46.4 287.01 47.5L289.07 49.5L293.5 45.05C290.02 41.52 288.33 38.25 287.49 35.5C286.66 32.75 285.98 28.25 285.98 25.5C285.98 22.75 286.64 18.25 287.45 15.5C288.25 12.75 289.83 9.49 290.96 8.25C292.91 6.1 292.92 5.91 291.25 3.97C290.29 2.85 289.18 1.95 288.8 1.97C288.41 1.99 286.98 3.46 285.63 5.25ZM305.86 3.59C304.75 4.88 304.74 5.49 305.77 6.84C306.47 7.75 307.79 10.07 308.71 12C309.67 14.01 310.56 18.9 310.79 23.5C311.03 28.15 310.69 33.17 309.99 35.5C309.32 37.7 307.93 40.74 306.89 42.25C305.46 44.33 305.24 45.49 306 47C306.55 48.1 307.34 49.01 307.75 49.03C308.16 49.04 309.5 48.03 310.73 46.78C311.95 45.52 313.87 42.14 314.98 39.25C316.44 35.46 317 31.63 317 25.5C317 19.37 316.44 15.54 314.98 11.75C313.87 8.86 311.95 5.48 310.73 4.22C309.5 2.97 308.21 1.96 307.86 1.97C307.51 1.99 306.61 2.71 305.86 3.59ZM327 5.2C325.98 6.07 325.67 8.47 325.84 13.95C326.03 19.79 325.73 21.84 324.5 23C323.63 23.82 322.91 25.18 322.91 26C322.91 26.82 323.63 28.18 324.5 29C325.68 30.11 326.08 32.38 326.04 37.75C326.01 42.91 326.43 45.43 327.5 46.5C328.32 47.33 329.9 48 331 48C332.11 48 333 47.33 333 46.5C333 45.67 332.1 44.77 331 44.5C329.23 44.06 329 43.17 329.02 36.75C329.03 32.08 328.53 28.79 327.62 27.5C326.4 25.78 326.4 25.22 327.61 23.5C328.51 22.22 329.01 18.88 329.01 14.25C329 7.66 329.18 7 331 7C332.11 7 333 6.33 333 5.5C333 4.6 332.08 4 330.7 4C329.44 4 327.77 4.54 327 5.2Z" />
		<path id="Path 1" class="shp1" d="M362.55 5C362.25 5.55 362.34 5.98 362.75 5.96C363.16 5.93 362.55 6.72 361.38 7.71C360.21 8.69 356.84 13.1 353.89 17.5C350.94 21.9 346.8 27.75 344.69 30.5C342.59 33.25 340.49 37.08 340.03 39C339.58 40.92 338.93 44.19 338.6 46.25C338.27 48.31 338.34 49.88 338.75 49.72C339.16 49.57 341.98 48.21 345 46.7C349.78 44.31 351.55 42.49 358.5 32.79C362.9 26.65 367.67 20.25 369.1 18.57C370.54 16.88 372.27 14.38 372.95 13C374.1 10.69 373.91 10.26 370.35 7.23C368.23 5.43 365.73 3.97 364.8 3.98C363.86 3.99 362.85 4.45 362.55 5Z" />
		<path id="Path 2" class="shp0" d="M379 5.5C379 6.33 379.89 7 381 7C382.83 7 383 7.65 382.96 14.75C382.92 20.57 383.3 22.81 384.46 23.75C385.84 24.87 385.84 25.24 384.49 27.25C383.49 28.74 382.99 31.94 382.99 36.75C383 43.17 382.77 44.06 381 44.5C379.9 44.77 379 45.67 379 46.5C379 47.33 379.56 48 380.25 48.01C380.94 48.01 382.51 47.34 383.75 46.51C385.75 45.17 385.99 44.18 385.96 37.75C385.92 32.38 386.32 30.11 387.5 29C388.37 28.18 389.09 26.82 389.09 26C389.09 25.18 388.37 23.82 387.5 23C386.31 21.88 385.93 19.62 385.97 14C386.01 9.21 385.58 6.04 384.77 5.23C384.07 4.54 382.49 3.97 381.25 3.98C379.92 3.99 379 4.62 379 5.5Z" />
		<path id="Path 3" class="shp2" d="M363.03 8.77L360.98 11.5L367.5 15.88C370.28 12.49 371.09 11.25 371.1 10.94C371.1 10.63 369.76 9.4 368.1 8.2L365.09 6.03L363.03 8.77Z" />
		<path id="Path 4" class="shp3" d="M31.5 7.67C31.04 8.03 30.74 15.23 30.83 23.67L31 39L38 39C38.45 25.34 38.87 23.47 40.25 22.61C41.53 21.8 42.47 21.8 43.75 22.61C45.13 23.47 45.55 25.34 45.75 31.36L46 39L52 39C52 22.33 51.7 20.7 50 19C48.7 17.7 46.67 17 44.2 17C42.11 17 39.85 17.56 39.18 18.25C38.22 19.24 37.97 18.18 37.98 13.25C38 7.05 37.98 7 35.17 7C33.61 7 31.96 7.3 31.5 7.67ZM6.44 9.21C6.12 9.92 6.01 11.4 6.19 12.5C6.44 14.03 7.4 14.56 10.26 14.75L14 15L14 39L21 39L21 15C27.14 14.53 27.5 14.17 27.5 11.5L27.5 8.5C9.66 8 6.87 8.26 6.44 9.21Z" />
		<path id="Path 5" class="shp4" d="M124.54 8.62C124.06 9.01 123.74 16.01 123.83 24.17L124 39L141 39C141 33.11 140.83 33 136.5 33L132 33L131.5 8.5C126.79 8.04 125.03 8.23 124.54 8.62Z" />
		<path id="Path 6" class="shp5" d="M352.12 24.17L343.84 35.5C347.84 38.99 349.45 40 350 40C350.55 40 354.07 35.61 357.82 30.25C361.58 24.89 364.94 20.05 365.29 19.5C365.65 18.95 364.69 17.22 363.17 15.67L360.39 12.83L352.12 24.17Z" />
		<path id="Path 7" fill-rule="evenodd" class="shp3" d="M61.67 17C62.95 17 64 17.45 64 18C64 18.67 64.67 18.67 66 18C67.1 17.45 68.67 17 69.5 17C70.46 17 71.01 17.98 71.02 19.75C71.04 21.94 70.48 22.63 68.27 23.15C66.57 23.55 65.22 24.7 64.76 26.15C64.36 27.44 64.02 30.86 64.01 33.75C64 38.91 63.95 39 58 39L57.83 28.67C57.74 22.98 58.04 18.03 58.5 17.67C58.96 17.3 60.38 17 61.67 17ZM84.02 17C88 17 89.5 17.5 91.5 19.5C92.88 20.88 94.28 23.01 94.62 24.25C94.96 25.49 94.96 27.29 94.62 28.25C94.1 29.71 92.74 30 86.5 30C82.38 30 78.99 30.34 78.98 30.75C78.97 31.16 79.54 32.07 80.23 32.77C80.93 33.46 82.74 34.03 84.25 34.02C85.76 34.01 87.22 33.55 87.5 33C87.78 32.45 89.35 32 91 32C93 32 94 32.5 94 33.5C94 34.33 92.76 35.91 91.25 37.02C89.74 38.13 87.38 39.28 86 39.56C84.63 39.85 81.7 39.5 79.5 38.79C76.59 37.85 75.01 36.55 73.7 34C72.48 31.64 72.05 29.2 72.39 26.5C72.73 23.68 73.78 21.69 75.95 19.75C78.44 17.53 79.99 17 84.02 17ZM83.25 25.04C86.54 25.01 87.9 24.62 87.67 23.75C87.49 23.06 85.99 22.36 84.34 22.2C82.52 22.02 80.77 22.53 79.92 23.49C78.64 24.93 78.98 25.08 83.25 25.04ZM108.77 16.99C111.37 16.99 114.51 17.66 115.75 18.49C116.99 19.32 118.49 21.69 119.09 23.75C119.68 25.81 119.91 28.06 119.59 28.75C119.19 29.59 116.52 30 111.5 30C107.38 30 103.99 30.34 103.98 30.75C103.97 31.16 104.54 32.07 105.23 32.77C105.93 33.46 107.74 34.03 109.25 34.02C110.76 34.01 112.22 33.55 112.5 33C112.78 32.45 114.35 32 116 32C118.26 32 118.94 32.42 118.75 33.71C118.61 34.65 116.92 36.46 115 37.74C113.08 39.01 110.49 40.04 109.25 40.03C108.01 40.01 105.42 39.33 103.5 38.5C101.09 37.47 99.5 35.84 98.4 33.25C97.4 30.93 97.01 28.17 97.36 26C97.71 23.86 99.12 21.43 100.98 19.75C103.4 17.57 105.02 17 108.77 16.99ZM108.25 25.04C111.54 25.01 112.9 24.62 112.67 23.75C112.49 23.06 110.99 22.36 109.34 22.2C107.52 22.02 105.77 22.53 104.92 23.49C103.64 24.93 103.98 25.08 108.25 25.04Z" />
		<path id="Path 8" fill-rule="evenodd" class="shp4" d="M152.7 16.96C155.99 16.93 158.29 17.53 160 18.87C162.3 20.67 162.52 21.55 163 39L160 39C158.35 39 157 38.55 157 38C157 37.44 155.67 37.67 154 38.5C152.33 39.33 149.67 39.78 148 39.5C146.35 39.23 144.55 38.1 144 37C143.45 35.9 143 33.88 143 32.5C143 30.99 143.89 29.44 145.25 28.58C146.49 27.8 149.41 26.68 151.75 26.08C154.38 25.41 156 24.43 156 23.5C156 22.5 155 22 153 22C151.35 22 149.66 22.64 149.25 23.41C148.79 24.29 147.45 24.67 145.75 24.41C144.24 24.19 143.02 23.53 143.05 22.95C143.07 22.38 144.18 20.8 145.5 19.45C147.38 17.54 148.97 16.99 152.7 16.96ZM149.33 33.25C149.52 33.94 150.42 34.61 151.33 34.75C152.25 34.89 153.7 34.44 154.54 33.75C155.39 33.06 156.07 31.94 156.04 31.25C156.02 30.56 155.44 30.03 154.75 30.06C154.06 30.1 152.49 30.55 151.25 31.06C150.01 31.58 149.15 32.56 149.33 33.25ZM177.02 17.16C183.79 17.02 185.3 17.3 187 19C188.7 20.7 189 22.33 189 39L183 39L183 32.5C183 28.92 182.55 25.1 182 24C181.45 22.9 180.19 22 179.2 22C178.21 22 176.85 22.56 176.18 23.25C175.45 24 174.97 27.39 175 39L168 39L167.83 28.67C167.74 22.98 167.97 18.1 168.35 17.82C168.73 17.54 172.63 17.24 177.02 17.16Z" />
		<path id="Path 9" fill-rule="evenodd" class="shp6" d="M204.4 17C207.99 17 209.7 17.61 212.16 19.75C214.35 21.66 215.11 23.03 214.66 24.25C214.29 25.21 212.99 26 211.75 26C210.51 26.01 208.94 25.11 208.25 24C207.41 22.66 206.11 22.08 204.28 22.25C202.51 22.41 201.03 23.46 200.03 25.25C198.66 27.72 198.66 28.28 200.03 30.75C200.93 32.35 202.59 33.64 204.03 33.82C205.39 34 207.17 33.42 208 32.53C208.82 31.64 210.74 30.93 212.25 30.96C213.76 30.98 215 31.56 215.01 32.25C215.01 32.94 214.3 34.48 213.43 35.67C212.55 36.87 210.19 38.39 208.17 39.04C205.41 39.95 203.57 39.97 200.75 39.12C198.29 38.39 196.31 36.88 195 34.75C193.84 32.85 193.05 29.9 193.1 27.65C193.18 24.72 193.99 22.98 196.5 20.4C199.31 17.5 200.48 17 204.4 17ZM228.92 17C232.75 17 234.64 17.55 236.6 19.25C238.51 20.91 239.24 22.56 239.5 29.5L231.75 29.75C227.49 29.89 223.99 30.34 223.98 30.75C223.97 31.16 224.54 32.07 225.23 32.77C225.93 33.46 227.74 34.03 229.25 34.02C230.76 34.01 232.22 33.55 232.5 33C232.78 32.45 234.35 32 236 32C238 32 239 32.5 239 33.5C239 34.33 237.76 35.93 236.25 37.06C234.74 38.2 232.6 39.37 231.5 39.66C230.4 39.96 227.81 39.71 225.75 39.1C223.69 38.5 221.08 36.76 219.97 35.25C218.52 33.3 217.96 31.09 218.04 27.67C218.13 23.81 218.72 22.26 221 19.92C223.41 17.45 224.63 17 228.92 17ZM228.25 25.04C231.54 25.01 232.9 24.62 232.67 23.75C232.49 23.06 230.99 22.36 229.34 22.2C227.52 22.02 225.77 22.53 224.92 23.49C223.64 24.93 223.98 25.08 228.25 25.04ZM247.67 17C249.07 17 250 17.6 250 18.5C250 19.83 250.25 19.83 252.25 18.49C253.49 17.66 255.06 16.99 255.75 16.99C256.44 17 257 18.13 257 19.5C257 21.26 256.18 22.38 254.25 23.26C251.66 24.45 251.49 24.94 251 39L244 39L243.83 28.67C243.74 22.98 244.04 18.03 244.5 17.67C244.96 17.3 246.38 17 247.67 17Z" />
		<path id="Path 10" class="shp0" d="M261.5 19.45C260.18 20.8 259.06 22.49 259.03 23.2C258.99 23.92 259.54 25.33 260.23 26.34C260.93 27.35 263.52 28.94 266 29.87C268.65 30.87 270.6 32.27 270.75 33.28C270.92 34.46 270.3 35.01 268.75 35.04C267.51 35.07 265.82 34.37 265 33.5C264.18 32.63 263.05 31.94 262.5 31.97C261.95 32 260.89 32.36 260.15 32.77C259.11 33.33 259.05 34.01 259.9 35.75C260.51 36.99 262.46 38.47 264.25 39.04C266.04 39.61 268.85 39.78 270.5 39.41C272.15 39.03 274.3 38 275.28 37.12C276.31 36.18 277.05 34.13 277.03 32.25C277.01 29.98 276.32 28.58 274.75 27.61C273.51 26.85 270.81 25.72 268.75 25.11C266.69 24.5 265 23.55 265 23C265 22.45 265.23 22 265.5 22C265.77 22 266.56 21.74 267.25 21.43C267.94 21.11 269.29 21.56 270.25 22.43C271.21 23.29 272.9 23.77 274 23.5C275.1 23.23 276 22.32 276 21.5C276 20.68 274.99 19.32 273.75 18.49C272.51 17.66 269.79 16.99 267.7 16.99C265 17 263.22 17.71 261.5 19.45Z" />
		<path id="Path 11" class="shp7" d="M341.46 41.75C341.12 43.81 341.11 45.61 341.42 45.75C341.74 45.89 343.35 45.33 345 44.5C346.65 43.67 348 42.77 348 42.5C348 42.23 346.99 41.11 345.75 40.03C344.51 38.95 343.18 38.05 342.79 38.03C342.4 38.01 341.8 39.69 341.46 41.75Z" />
	</g>
	<g id="Layer 1 copy">
		<path id="Path 0" class="shp0" d="M285.63 5.25C284.28 7.04 282.41 11.2 281.46 14.5C280.25 18.74 279.88 22.7 280.21 28C280.49 32.47 281.54 37.52 282.81 40.5C283.99 43.25 285.87 46.4 287.01 47.5L289.07 49.5L293.5 45.05C290.02 41.52 288.33 38.25 287.49 35.5C286.66 32.75 285.98 28.25 285.98 25.5C285.98 22.75 286.64 18.25 287.45 15.5C288.25 12.75 289.83 9.49 290.96 8.25C292.91 6.1 292.92 5.91 291.25 3.97C290.29 2.85 289.18 1.95 288.8 1.97C288.41 1.99 286.98 3.46 285.63 5.25ZM305.86 3.59C304.75 4.88 304.74 5.49 305.77 6.84C306.47 7.75 307.79 10.07 308.71 12C309.67 14.01 310.56 18.9 310.79 23.5C311.03 28.15 310.69 33.17 309.99 35.5C309.32 37.7 307.93 40.74 306.89 42.25C305.46 44.33 305.24 45.49 306 47C306.55 48.1 307.34 49.01 307.75 49.03C308.16 49.04 309.5 48.03 310.73 46.78C311.95 45.52 313.87 42.14 314.98 39.25C316.44 35.46 317 31.63 317 25.5C317 19.37 316.44 15.54 314.98 11.75C313.87 8.86 311.95 5.48 310.73 4.22C309.5 2.97 308.21 1.96 307.86 1.97C307.51 1.99 306.61 2.71 305.86 3.59ZM327 5.2C325.98 6.07 325.67 8.47 325.84 13.95C326.03 19.79 325.73 21.84 324.5 23C323.63 23.82 322.91 25.18 322.91 26C322.91 26.82 323.63 28.18 324.5 29C325.68 30.11 326.08 32.38 326.04 37.75C326.01 42.91 326.43 45.43 327.5 46.5C328.32 47.33 329.9 48 331 48C332.11 48 333 47.33 333 46.5C333 45.67 332.1 44.77 331 44.5C329.23 44.06 329 43.17 329.02 36.75C329.03 32.08 328.53 28.79 327.62 27.5C326.4 25.78 326.4 25.22 327.61 23.5C328.51 22.22 329.01 18.88 329.01 14.25C329 7.66 329.18 7 331 7C332.11 7 333 6.33 333 5.5C333 4.6 332.08 4 330.7 4C329.44 4 327.77 4.54 327 5.2Z" />
		<path id="Path 1" class="shp1" d="M362.55 5C362.25 5.55 362.34 5.98 362.75 5.96C363.16 5.93 362.55 6.72 361.38 7.71C360.21 8.69 356.84 13.1 353.89 17.5C350.94 21.9 346.8 27.75 344.69 30.5C342.59 33.25 340.49 37.08 340.03 39C339.58 40.92 338.93 44.19 338.6 46.25C338.27 48.31 338.34 49.88 338.75 49.72C339.16 49.57 341.98 48.21 345 46.7C349.78 44.31 351.55 42.49 358.5 32.79C362.9 26.65 367.67 20.25 369.1 18.57C370.54 16.88 372.27 14.38 372.95 13C374.1 10.69 373.91 10.26 370.35 7.23C368.23 5.43 365.73 3.97 364.8 3.98C363.86 3.99 362.85 4.45 362.55 5Z" />
		<path id="Path 2" class="shp0" d="M379 5.5C379 6.33 379.89 7 381 7C382.83 7 383 7.65 382.96 14.75C382.92 20.57 383.3 22.81 384.46 23.75C385.84 24.87 385.84 25.24 384.49 27.25C383.49 28.74 382.99 31.94 382.99 36.75C383 43.17 382.77 44.06 381 44.5C379.9 44.77 379 45.67 379 46.5C379 47.33 379.56 48 380.25 48.01C380.94 48.01 382.51 47.34 383.75 46.51C385.75 45.17 385.99 44.18 385.96 37.75C385.92 32.38 386.32 30.11 387.5 29C388.37 28.18 389.09 26.82 389.09 26C389.09 25.18 388.37 23.82 387.5 23C386.31 21.88 385.93 19.62 385.97 14C386.01 9.21 385.58 6.04 384.77 5.23C384.07 4.54 382.49 3.97 381.25 3.98C379.92 3.99 379 4.62 379 5.5Z" />
		<path id="Path 3" class="shp2" d="M363.03 8.77L360.98 11.5L367.5 15.88C370.28 12.49 371.09 11.25 371.1 10.94C371.1 10.63 369.76 9.4 368.1 8.2L365.09 6.03L363.03 8.77Z" />
		<path id="Path 4" class="shp3" d="M31.5 7.67C31.04 8.03 30.74 15.23 30.83 23.67L31 39L38 39C38.45 25.34 38.87 23.47 40.25 22.61C41.53 21.8 42.47 21.8 43.75 22.61C45.13 23.47 45.55 25.34 45.75 31.36L46 39L52 39C52 22.33 51.7 20.7 50 19C48.7 17.7 46.67 17 44.2 17C42.11 17 39.85 17.56 39.18 18.25C38.22 19.24 37.97 18.18 37.98 13.25C38 7.05 37.98 7 35.17 7C33.61 7 31.96 7.3 31.5 7.67ZM6.44 9.21C6.12 9.92 6.01 11.4 6.19 12.5C6.44 14.03 7.4 14.56 10.26 14.75L14 15L14 39L21 39L21 15C27.14 14.53 27.5 14.17 27.5 11.5L27.5 8.5C9.66 8 6.87 8.26 6.44 9.21Z" />
		<path id="Path 5" class="shp4" d="M124.54 8.62C124.06 9.01 123.74 16.01 123.83 24.17L124 39L141 39C141 33.11 140.83 33 136.5 33L132 33L131.5 8.5C126.79 8.04 125.03 8.23 124.54 8.62Z" />
		<path id="Path 6" class="shp5" d="M352.12 24.17L343.84 35.5C347.84 38.99 349.45 40 350 40C350.55 40 354.07 35.61 357.82 30.25C361.58 24.89 364.94 20.05 365.29 19.5C365.65 18.95 364.69 17.22 363.17 15.67L360.39 12.83L352.12 24.17Z" />
		<path id="Path 7" fill-rule="evenodd" class="shp3" d="M61.67 17C62.95 17 64 17.45 64 18C64 18.67 64.67 18.67 66 18C67.1 17.45 68.67 17 69.5 17C70.46 17 71.01 17.98 71.02 19.75C71.04 21.94 70.48 22.63 68.27 23.15C66.57 23.55 65.22 24.7 64.76 26.15C64.36 27.44 64.02 30.86 64.01 33.75C64 38.91 63.95 39 58 39L57.83 28.67C57.74 22.98 58.04 18.03 58.5 17.67C58.96 17.3 60.38 17 61.67 17ZM84.02 17C88 17 89.5 17.5 91.5 19.5C92.88 20.88 94.28 23.01 94.62 24.25C94.96 25.49 94.96 27.29 94.62 28.25C94.1 29.71 92.74 30 86.5 30C82.38 30 78.99 30.34 78.98 30.75C78.97 31.16 79.54 32.07 80.23 32.77C80.93 33.46 82.74 34.03 84.25 34.02C85.76 34.01 87.22 33.55 87.5 33C87.78 32.45 89.35 32 91 32C93 32 94 32.5 94 33.5C94 34.33 92.76 35.91 91.25 37.02C89.74 38.13 87.38 39.28 86 39.56C84.63 39.85 81.7 39.5 79.5 38.79C76.59 37.85 75.01 36.55 73.7 34C72.48 31.64 72.05 29.2 72.39 26.5C72.73 23.68 73.78 21.69 75.95 19.75C78.44 17.53 79.99 17 84.02 17ZM83.25 25.04C86.54 25.01 87.9 24.62 87.67 23.75C87.49 23.06 85.99 22.36 84.34 22.2C82.52 22.02 80.77 22.53 79.92 23.49C78.64 24.93 78.98 25.08 83.25 25.04ZM108.77 16.99C111.37 16.99 114.51 17.66 115.75 18.49C116.99 19.32 118.49 21.69 119.09 23.75C119.68 25.81 119.91 28.06 119.59 28.75C119.19 29.59 116.52 30 111.5 30C107.38 30 103.99 30.34 103.98 30.75C103.97 31.16 104.54 32.07 105.23 32.77C105.93 33.46 107.74 34.03 109.25 34.02C110.76 34.01 112.22 33.55 112.5 33C112.78 32.45 114.35 32 116 32C118.26 32 118.94 32.42 118.75 33.71C118.61 34.65 116.92 36.46 115 37.74C113.08 39.01 110.49 40.04 109.25 40.03C108.01 40.01 105.42 39.33 103.5 38.5C101.09 37.47 99.5 35.84 98.4 33.25C97.4 30.93 97.01 28.17 97.36 26C97.71 23.86 99.12 21.43 100.98 19.75C103.4 17.57 105.02 17 108.77 16.99ZM108.25 25.04C111.54 25.01 112.9 24.62 112.67 23.75C112.49 23.06 110.99 22.36 109.34 22.2C107.52 22.02 105.77 22.53 104.92 23.49C103.64 24.93 103.98 25.08 108.25 25.04Z" />
		<path id="Path 8" fill-rule="evenodd" class="shp4" d="M152.7 16.96C155.99 16.93 158.29 17.53 160 18.87C162.3 20.67 162.52 21.55 163 39L160 39C158.35 39 157 38.55 157 38C157 37.44 155.67 37.67 154 38.5C152.33 39.33 149.67 39.78 148 39.5C146.35 39.23 144.55 38.1 144 37C143.45 35.9 143 33.88 143 32.5C143 30.99 143.89 29.44 145.25 28.58C146.49 27.8 149.41 26.68 151.75 26.08C154.38 25.41 156 24.43 156 23.5C156 22.5 155 22 153 22C151.35 22 149.66 22.64 149.25 23.41C148.79 24.29 147.45 24.67 145.75 24.41C144.24 24.19 143.02 23.53 143.05 22.95C143.07 22.38 144.18 20.8 145.5 19.45C147.38 17.54 148.97 16.99 152.7 16.96ZM149.33 33.25C149.52 33.94 150.42 34.61 151.33 34.75C152.25 34.89 153.7 34.44 154.54 33.75C155.39 33.06 156.07 31.94 156.04 31.25C156.02 30.56 155.44 30.03 154.75 30.06C154.06 30.1 152.49 30.55 151.25 31.06C150.01 31.58 149.15 32.56 149.33 33.25ZM177.02 17.16C183.79 17.02 185.3 17.3 187 19C188.7 20.7 189 22.33 189 39L183 39L183 32.5C183 28.92 182.55 25.1 182 24C181.45 22.9 180.19 22 179.2 22C178.21 22 176.85 22.56 176.18 23.25C175.45 24 174.97 27.39 175 39L168 39L167.83 28.67C167.74 22.98 167.97 18.1 168.35 17.82C168.73 17.54 172.63 17.24 177.02 17.16Z" />
		<path id="Path 9" fill-rule="evenodd" class="shp6" d="M204.4 17C207.99 17 209.7 17.61 212.16 19.75C214.35 21.66 215.11 23.03 214.66 24.25C214.29 25.21 212.99 26 211.75 26C210.51 26.01 208.94 25.11 208.25 24C207.41 22.66 206.11 22.08 204.28 22.25C202.51 22.41 201.03 23.46 200.03 25.25C198.66 27.72 198.66 28.28 200.03 30.75C200.93 32.35 202.59 33.64 204.03 33.82C205.39 34 207.17 33.42 208 32.53C208.82 31.64 210.74 30.93 212.25 30.96C213.76 30.98 215 31.56 215.01 32.25C215.01 32.94 214.3 34.48 213.43 35.67C212.55 36.87 210.19 38.39 208.17 39.04C205.41 39.95 203.57 39.97 200.75 39.12C198.29 38.39 196.31 36.88 195 34.75C193.84 32.85 193.05 29.9 193.1 27.65C193.18 24.72 193.99 22.98 196.5 20.4C199.31 17.5 200.48 17 204.4 17ZM228.92 17C232.75 17 234.64 17.55 236.6 19.25C238.51 20.91 239.24 22.56 239.5 29.5L231.75 29.75C227.49 29.89 223.99 30.34 223.98 30.75C223.97 31.16 224.54 32.07 225.23 32.77C225.93 33.46 227.74 34.03 229.25 34.02C230.76 34.01 232.22 33.55 232.5 33C232.78 32.45 234.35 32 236 32C238 32 239 32.5 239 33.5C239 34.33 237.76 35.93 236.25 37.06C234.74 38.2 232.6 39.37 231.5 39.66C230.4 39.96 227.81 39.71 225.75 39.1C223.69 38.5 221.08 36.76 219.97 35.25C218.52 33.3 217.96 31.09 218.04 27.67C218.13 23.81 218.72 22.26 221 19.92C223.41 17.45 224.63 17 228.92 17ZM228.25 25.04C231.54 25.01 232.9 24.62 232.67 23.75C232.49 23.06 230.99 22.36 229.34 22.2C227.52 22.02 225.77 22.53 224.92 23.49C223.64 24.93 223.98 25.08 228.25 25.04ZM247.67 17C249.07 17 250 17.6 250 18.5C250 19.83 250.25 19.83 252.25 18.49C253.49 17.66 255.06 16.99 255.75 16.99C256.44 17 257 18.13 257 19.5C257 21.26 256.18 22.38 254.25 23.26C251.66 24.45 251.49 24.94 251 39L244 39L243.83 28.67C243.74 22.98 244.04 18.03 244.5 17.67C244.96 17.3 246.38 17 247.67 17Z" />
		<path id="Path 10" class="shp0" d="M261.5 19.45C260.18 20.8 259.06 22.49 259.03 23.2C258.99 23.92 259.54 25.33 260.23 26.34C260.93 27.35 263.52 28.94 266 29.87C268.65 30.87 270.6 32.27 270.75 33.28C270.92 34.46 270.3 35.01 268.75 35.04C267.51 35.07 265.82 34.37 265 33.5C264.18 32.63 263.05 31.94 262.5 31.97C261.95 32 260.89 32.36 260.15 32.77C259.11 33.33 259.05 34.01 259.9 35.75C260.51 36.99 262.46 38.47 264.25 39.04C266.04 39.61 268.85 39.78 270.5 39.41C272.15 39.03 274.3 38 275.28 37.12C276.31 36.18 277.05 34.13 277.03 32.25C277.01 29.98 276.32 28.58 274.75 27.61C273.51 26.85 270.81 25.72 268.75 25.11C266.69 24.5 265 23.55 265 23C265 22.45 265.23 22 265.5 22C265.77 22 266.56 21.74 267.25 21.43C267.94 21.11 269.29 21.56 270.25 22.43C271.21 23.29 272.9 23.77 274 23.5C275.1 23.23 276 22.32 276 21.5C276 20.68 274.99 19.32 273.75 18.49C272.51 17.66 269.79 16.99 267.7 16.99C265 17 263.22 17.71 261.5 19.45Z" />
		<path id="Path 11" class="shp7" d="M341.46 41.75C341.12 43.81 341.11 45.61 341.42 45.75C341.74 45.89 343.35 45.33 345 44.5C346.65 43.67 348 42.77 348 42.5C348 42.23 346.99 41.11 345.75 40.03C344.51 38.95 343.18 38.05 342.79 38.03C342.4 38.01 341.8 39.69 341.46 41.75Z" />
	</g>
	<g id="Layer 1 copy 2">
		<path id="Path 0" class="shp0" d="M285.63 5.25C284.28 7.04 282.41 11.2 281.46 14.5C280.25 18.74 279.88 22.7 280.21 28C280.49 32.47 281.54 37.52 282.81 40.5C283.99 43.25 285.87 46.4 287.01 47.5L289.07 49.5L293.5 45.05C290.02 41.52 288.33 38.25 287.49 35.5C286.66 32.75 285.98 28.25 285.98 25.5C285.98 22.75 286.64 18.25 287.45 15.5C288.25 12.75 289.83 9.49 290.96 8.25C292.91 6.1 292.92 5.91 291.25 3.97C290.29 2.85 289.18 1.95 288.8 1.97C288.41 1.99 286.98 3.46 285.63 5.25ZM305.86 3.59C304.75 4.88 304.74 5.49 305.77 6.84C306.47 7.75 307.79 10.07 308.71 12C309.67 14.01 310.56 18.9 310.79 23.5C311.03 28.15 310.69 33.17 309.99 35.5C309.32 37.7 307.93 40.74 306.89 42.25C305.46 44.33 305.24 45.49 306 47C306.55 48.1 307.34 49.01 307.75 49.03C308.16 49.04 309.5 48.03 310.73 46.78C311.95 45.52 313.87 42.14 314.98 39.25C316.44 35.46 317 31.63 317 25.5C317 19.37 316.44 15.54 314.98 11.75C313.87 8.86 311.95 5.48 310.73 4.22C309.5 2.97 308.21 1.96 307.86 1.97C307.51 1.99 306.61 2.71 305.86 3.59ZM327 5.2C325.98 6.07 325.67 8.47 325.84 13.95C326.03 19.79 325.73 21.84 324.5 23C323.63 23.82 322.91 25.18 322.91 26C322.91 26.82 323.63 28.18 324.5 29C325.68 30.11 326.08 32.38 326.04 37.75C326.01 42.91 326.43 45.43 327.5 46.5C328.32 47.33 329.9 48 331 48C332.11 48 333 47.33 333 46.5C333 45.67 332.1 44.77 331 44.5C329.23 44.06 329 43.17 329.02 36.75C329.03 32.08 328.53 28.79 327.62 27.5C326.4 25.78 326.4 25.22 327.61 23.5C328.51 22.22 329.01 18.88 329.01 14.25C329 7.66 329.18 7 331 7C332.11 7 333 6.33 333 5.5C333 4.6 332.08 4 330.7 4C329.44 4 327.77 4.54 327 5.2Z" />
		<path id="Path 1" class="shp1" d="M362.55 5C362.25 5.55 362.34 5.98 362.75 5.96C363.16 5.93 362.55 6.72 361.38 7.71C360.21 8.69 356.84 13.1 353.89 17.5C350.94 21.9 346.8 27.75 344.69 30.5C342.59 33.25 340.49 37.08 340.03 39C339.58 40.92 338.93 44.19 338.6 46.25C338.27 48.31 338.34 49.88 338.75 49.72C339.16 49.57 341.98 48.21 345 46.7C349.78 44.31 351.55 42.49 358.5 32.79C362.9 26.65 367.67 20.25 369.1 18.57C370.54 16.88 372.27 14.38 372.95 13C374.1 10.69 373.91 10.26 370.35 7.23C368.23 5.43 365.73 3.97 364.8 3.98C363.86 3.99 362.85 4.45 362.55 5Z" />
		<path id="Path 2" class="shp0" d="M379 5.5C379 6.33 379.89 7 381 7C382.83 7 383 7.65 382.96 14.75C382.92 20.57 383.3 22.81 384.46 23.75C385.84 24.87 385.84 25.24 384.49 27.25C383.49 28.74 382.99 31.94 382.99 36.75C383 43.17 382.77 44.06 381 44.5C379.9 44.77 379 45.67 379 46.5C379 47.33 379.56 48 380.25 48.01C380.94 48.01 382.51 47.34 383.75 46.51C385.75 45.17 385.99 44.18 385.96 37.75C385.92 32.38 386.32 30.11 387.5 29C388.37 28.18 389.09 26.82 389.09 26C389.09 25.18 388.37 23.82 387.5 23C386.31 21.88 385.93 19.62 385.97 14C386.01 9.21 385.58 6.04 384.77 5.23C384.07 4.54 382.49 3.97 381.25 3.98C379.92 3.99 379 4.62 379 5.5Z" />
		<path id="Path 3" class="shp2" d="M363.03 8.77L360.98 11.5L367.5 15.88C370.28 12.49 371.09 11.25 371.1 10.94C371.1 10.63 369.76 9.4 368.1 8.2L365.09 6.03L363.03 8.77Z" />
		<path id="Path 4" class="shp3" d="M31.5 7.67C31.04 8.03 30.74 15.23 30.83 23.67L31 39L38 39C38.45 25.34 38.87 23.47 40.25 22.61C41.53 21.8 42.47 21.8 43.75 22.61C45.13 23.47 45.55 25.34 45.75 31.36L46 39L52 39C52 22.33 51.7 20.7 50 19C48.7 17.7 46.67 17 44.2 17C42.11 17 39.85 17.56 39.18 18.25C38.22 19.24 37.97 18.18 37.98 13.25C38 7.05 37.98 7 35.17 7C33.61 7 31.96 7.3 31.5 7.67ZM6.44 9.21C6.12 9.92 6.01 11.4 6.19 12.5C6.44 14.03 7.4 14.56 10.26 14.75L14 15L14 39L21 39L21 15C27.14 14.53 27.5 14.17 27.5 11.5L27.5 8.5C9.66 8 6.87 8.26 6.44 9.21Z" />
		<path id="Path 5" class="shp4" d="M124.54 8.62C124.06 9.01 123.74 16.01 123.83 24.17L124 39L141 39C141 33.11 140.83 33 136.5 33L132 33L131.5 8.5C126.79 8.04 125.03 8.23 124.54 8.62Z" />
		<path id="Path 6" class="shp5" d="M352.12 24.17L343.84 35.5C347.84 38.99 349.45 40 350 40C350.55 40 354.07 35.61 357.82 30.25C361.58 24.89 364.94 20.05 365.29 19.5C365.65 18.95 364.69 17.22 363.17 15.67L360.39 12.83L352.12 24.17Z" />
		<path id="Path 7" fill-rule="evenodd" class="shp3" d="M61.67 17C62.95 17 64 17.45 64 18C64 18.67 64.67 18.67 66 18C67.1 17.45 68.67 17 69.5 17C70.46 17 71.01 17.98 71.02 19.75C71.04 21.94 70.48 22.63 68.27 23.15C66.57 23.55 65.22 24.7 64.76 26.15C64.36 27.44 64.02 30.86 64.01 33.75C64 38.91 63.95 39 58 39L57.83 28.67C57.74 22.98 58.04 18.03 58.5 17.67C58.96 17.3 60.38 17 61.67 17ZM84.02 17C88 17 89.5 17.5 91.5 19.5C92.88 20.88 94.28 23.01 94.62 24.25C94.96 25.49 94.96 27.29 94.62 28.25C94.1 29.71 92.74 30 86.5 30C82.38 30 78.99 30.34 78.98 30.75C78.97 31.16 79.54 32.07 80.23 32.77C80.93 33.46 82.74 34.03 84.25 34.02C85.76 34.01 87.22 33.55 87.5 33C87.78 32.45 89.35 32 91 32C93 32 94 32.5 94 33.5C94 34.33 92.76 35.91 91.25 37.02C89.74 38.13 87.38 39.28 86 39.56C84.63 39.85 81.7 39.5 79.5 38.79C76.59 37.85 75.01 36.55 73.7 34C72.48 31.64 72.05 29.2 72.39 26.5C72.73 23.68 73.78 21.69 75.95 19.75C78.44 17.53 79.99 17 84.02 17ZM83.25 25.04C86.54 25.01 87.9 24.62 87.67 23.75C87.49 23.06 85.99 22.36 84.34 22.2C82.52 22.02 80.77 22.53 79.92 23.49C78.64 24.93 78.98 25.08 83.25 25.04ZM108.77 16.99C111.37 16.99 114.51 17.66 115.75 18.49C116.99 19.32 118.49 21.69 119.09 23.75C119.68 25.81 119.91 28.06 119.59 28.75C119.19 29.59 116.52 30 111.5 30C107.38 30 103.99 30.34 103.98 30.75C103.97 31.16 104.54 32.07 105.23 32.77C105.93 33.46 107.74 34.03 109.25 34.02C110.76 34.01 112.22 33.55 112.5 33C112.78 32.45 114.35 32 116 32C118.26 32 118.94 32.42 118.75 33.71C118.61 34.65 116.92 36.46 115 37.74C113.08 39.01 110.49 40.04 109.25 40.03C108.01 40.01 105.42 39.33 103.5 38.5C101.09 37.47 99.5 35.84 98.4 33.25C97.4 30.93 97.01 28.17 97.36 26C97.71 23.86 99.12 21.43 100.98 19.75C103.4 17.57 105.02 17 108.77 16.99ZM108.25 25.04C111.54 25.01 112.9 24.62 112.67 23.75C112.49 23.06 110.99 22.36 109.34 22.2C107.52 22.02 105.77 22.53 104.92 23.49C103.64 24.93 103.98 25.08 108.25 25.04Z" />
		<path id="Path 8" fill-rule="evenodd" class="shp4" d="M152.7 16.96C155.99 16.93 158.29 17.53 160 18.87C162.3 20.67 162.52 21.55 163 39L160 39C158.35 39 157 38.55 157 38C157 37.44 155.67 37.67 154 38.5C152.33 39.33 149.67 39.78 148 39.5C146.35 39.23 144.55 38.1 144 37C143.45 35.9 143 33.88 143 32.5C143 30.99 143.89 29.44 145.25 28.58C146.49 27.8 149.41 26.68 151.75 26.08C154.38 25.41 156 24.43 156 23.5C156 22.5 155 22 153 22C151.35 22 149.66 22.64 149.25 23.41C148.79 24.29 147.45 24.67 145.75 24.41C144.24 24.19 143.02 23.53 143.05 22.95C143.07 22.38 144.18 20.8 145.5 19.45C147.38 17.54 148.97 16.99 152.7 16.96ZM149.33 33.25C149.52 33.94 150.42 34.61 151.33 34.75C152.25 34.89 153.7 34.44 154.54 33.75C155.39 33.06 156.07 31.94 156.04 31.25C156.02 30.56 155.44 30.03 154.75 30.06C154.06 30.1 152.49 30.55 151.25 31.06C150.01 31.58 149.15 32.56 149.33 33.25ZM177.02 17.16C183.79 17.02 185.3 17.3 187 19C188.7 20.7 189 22.33 189 39L183 39L183 32.5C183 28.92 182.55 25.1 182 24C181.45 22.9 180.19 22 179.2 22C178.21 22 176.85 22.56 176.18 23.25C175.45 24 174.97 27.39 175 39L168 39L167.83 28.67C167.74 22.98 167.97 18.1 168.35 17.82C168.73 17.54 172.63 17.24 177.02 17.16Z" />
		<path id="Path 9" fill-rule="evenodd" class="shp6" d="M204.4 17C207.99 17 209.7 17.61 212.16 19.75C214.35 21.66 215.11 23.03 214.66 24.25C214.29 25.21 212.99 26 211.75 26C210.51 26.01 208.94 25.11 208.25 24C207.41 22.66 206.11 22.08 204.28 22.25C202.51 22.41 201.03 23.46 200.03 25.25C198.66 27.72 198.66 28.28 200.03 30.75C200.93 32.35 202.59 33.64 204.03 33.82C205.39 34 207.17 33.42 208 32.53C208.82 31.64 210.74 30.93 212.25 30.96C213.76 30.98 215 31.56 215.01 32.25C215.01 32.94 214.3 34.48 213.43 35.67C212.55 36.87 210.19 38.39 208.17 39.04C205.41 39.95 203.57 39.97 200.75 39.12C198.29 38.39 196.31 36.88 195 34.75C193.84 32.85 193.05 29.9 193.1 27.65C193.18 24.72 193.99 22.98 196.5 20.4C199.31 17.5 200.48 17 204.4 17ZM228.92 17C232.75 17 234.64 17.55 236.6 19.25C238.51 20.91 239.24 22.56 239.5 29.5L231.75 29.75C227.49 29.89 223.99 30.34 223.98 30.75C223.97 31.16 224.54 32.07 225.23 32.77C225.93 33.46 227.74 34.03 229.25 34.02C230.76 34.01 232.22 33.55 232.5 33C232.78 32.45 234.35 32 236 32C238 32 239 32.5 239 33.5C239 34.33 237.76 35.93 236.25 37.06C234.74 38.2 232.6 39.37 231.5 39.66C230.4 39.96 227.81 39.71 225.75 39.1C223.69 38.5 221.08 36.76 219.97 35.25C218.52 33.3 217.96 31.09 218.04 27.67C218.13 23.81 218.72 22.26 221 19.92C223.41 17.45 224.63 17 228.92 17ZM228.25 25.04C231.54 25.01 232.9 24.62 232.67 23.75C232.49 23.06 230.99 22.36 229.34 22.2C227.52 22.02 225.77 22.53 224.92 23.49C223.64 24.93 223.98 25.08 228.25 25.04ZM247.67 17C249.07 17 250 17.6 250 18.5C250 19.83 250.25 19.83 252.25 18.49C253.49 17.66 255.06 16.99 255.75 16.99C256.44 17 257 18.13 257 19.5C257 21.26 256.18 22.38 254.25 23.26C251.66 24.45 251.49 24.94 251 39L244 39L243.83 28.67C243.74 22.98 244.04 18.03 244.5 17.67C244.96 17.3 246.38 17 247.67 17Z" />
		<path id="Path 10" class="shp0" d="M261.5 19.45C260.18 20.8 259.06 22.49 259.03 23.2C258.99 23.92 259.54 25.33 260.23 26.34C260.93 27.35 263.52 28.94 266 29.87C268.65 30.87 270.6 32.27 270.75 33.28C270.92 34.46 270.3 35.01 268.75 35.04C267.51 35.07 265.82 34.37 265 33.5C264.18 32.63 263.05 31.94 262.5 31.97C261.95 32 260.89 32.36 260.15 32.77C259.11 33.33 259.05 34.01 259.9 35.75C260.51 36.99 262.46 38.47 264.25 39.04C266.04 39.61 268.85 39.78 270.5 39.41C272.15 39.03 274.3 38 275.28 37.12C276.31 36.18 277.05 34.13 277.03 32.25C277.01 29.98 276.32 28.58 274.75 27.61C273.51 26.85 270.81 25.72 268.75 25.11C266.69 24.5 265 23.55 265 23C265 22.45 265.23 22 265.5 22C265.77 22 266.56 21.74 267.25 21.43C267.94 21.11 269.29 21.56 270.25 22.43C271.21 23.29 272.9 23.77 274 23.5C275.1 23.23 276 22.32 276 21.5C276 20.68 274.99 19.32 273.75 18.49C272.51 17.66 269.79 16.99 267.7 16.99C265 17 263.22 17.71 261.5 19.45Z" />
		<path id="Path 11" class="shp7" d="M341.46 41.75C341.12 43.81 341.11 45.61 341.42 45.75C341.74 45.89 343.35 45.33 345 44.5C346.65 43.67 348 42.77 348 42.5C348 42.23 346.99 41.11 345.75 40.03C344.51 38.95 343.18 38.05 342.79 38.03C342.4 38.01 341.8 39.69 341.46 41.75Z" />
	</g>
</svg>